<svg width="23" height="25" viewBox="0 0 23 25" fill="none" xmlns="http://www.w3.org/2000/svg">
<path d="M15.9127 0.575259C16.4209 0.574065 16.8227 0.968848 16.8238 1.49522L16.825 2.39246C20.1221 2.65086 22.3 4.89753 22.3036 8.34291L22.3166 18.4278C22.3213 22.1842 19.9614 24.4955 16.1786 24.5015L6.93857 24.5135C3.17944 24.5182 0.789959 22.1519 0.785232 18.3847L0.772225 8.41828C0.767506 4.95017 2.86864 2.70948 6.16571 2.40681L6.16452 1.50958C6.16334 0.983204 6.55332 0.587225 7.07328 0.587225C7.59325 0.586029 7.98323 0.980811 7.98441 1.50719L7.98559 2.34461L15.0051 2.33503L15.004 1.49762C15.0028 0.971241 15.3928 0.576458 15.9127 0.575259ZM16.3949 17.5617H16.3831C15.8394 17.5748 15.4034 18.0306 15.4152 18.5809C15.4164 19.1312 15.8548 19.5846 16.3984 19.5966C16.9527 19.5954 17.4017 19.1396 17.4005 18.5773C17.4005 18.0151 16.9503 17.5617 16.3949 17.5617ZM6.65731 17.5629C6.11371 17.5868 5.68828 18.0426 5.68946 18.5929C5.71428 19.1432 6.16334 19.5739 6.70694 19.5487C7.23991 19.5248 7.66416 19.069 7.63934 18.5187C7.62752 17.9804 7.1891 17.5617 6.65731 17.5629ZM11.5261 17.5569C10.9825 17.582 10.5582 18.0366 10.5582 18.5869C10.5831 19.1372 11.0321 19.5667 11.5757 19.5428C12.1075 19.5176 12.5329 19.063 12.5081 18.5115C12.4963 17.9744 12.0579 17.5557 11.5261 17.5569ZM6.6514 13.2562C6.1078 13.2801 5.68355 13.7359 5.68473 14.2862C5.70837 14.8365 6.15862 15.2672 6.70222 15.242C7.234 15.2181 7.65825 14.7623 7.63343 14.212C7.62161 13.6737 7.18437 13.255 6.6514 13.2562ZM11.5214 13.2143C10.9778 13.2382 10.5523 13.694 10.5535 14.2443C10.5772 14.7946 11.0274 15.2241 11.571 15.2002C12.1028 15.175 12.527 14.7204 12.5034 14.1701C12.4904 13.6318 12.0531 13.2131 11.5214 13.2143ZM16.3901 13.2203C15.8465 13.2322 15.4211 13.6749 15.4223 14.2252V14.2383C15.4341 14.7886 15.8832 15.2061 16.428 15.1942C16.9597 15.181 17.384 14.7252 17.3722 14.1749C17.3474 13.6485 16.9207 13.2191 16.3901 13.2203ZM15.0075 4.17735L7.98795 4.18692L7.98913 5.15474C7.98913 5.67035 7.60034 6.0771 7.08037 6.0771C6.56041 6.07829 6.16925 5.67274 6.16925 5.15713L6.16807 4.23597C3.86367 4.46686 2.58857 5.82108 2.59211 8.41588L2.5933 8.78794L20.4849 8.76401V8.3453C20.4341 5.77323 19.1436 4.42379 16.8274 4.22281L16.8286 5.14397C16.8286 5.65839 16.428 6.06633 15.9198 6.06633C15.3998 6.06752 15.0087 5.66078 15.0087 5.14637L15.0075 4.17735Z" fill="#333333"/>
</svg>
