<svg width="282" height="282" viewBox="0 0 282 282" fill="none" xmlns="http://www.w3.org/2000/svg">
<mask id="path-1-inside-1_144_792" fill="white">
<path d="M262.895 88.4192C267.077 86.6148 271.956 88.5361 273.512 92.8174C279.309 108.759 282.189 125.639 281.99 142.646C281.76 162.407 277.378 181.898 269.129 199.856C260.88 217.814 248.948 233.837 234.107 246.886C219.267 259.936 201.849 269.72 182.983 275.604C164.118 281.488 144.226 283.341 124.599 281.042C104.971 278.743 86.0459 272.344 69.0507 262.26C52.0555 252.176 37.3698 238.632 25.9462 222.506C16.1143 208.628 8.88778 193.103 4.59364 176.693C3.44045 172.286 6.36133 167.932 10.8283 167.038C15.2953 166.145 19.6138 169.051 20.8011 173.449C24.6201 187.595 30.9124 200.978 39.4076 212.97C49.4946 227.209 62.462 239.168 77.4688 248.072C92.4756 256.977 109.187 262.627 126.518 264.657C143.849 266.687 161.413 265.051 178.071 259.855C194.73 254.659 210.11 246.02 223.214 234.497C236.318 222.975 246.854 208.826 254.138 192.97C261.421 177.113 265.291 159.902 265.495 142.454C265.666 127.759 263.235 113.172 258.335 99.3628C256.811 95.0696 258.712 90.2235 262.895 88.4192Z"/>
</mask>
<path d="M262.895 88.4192C267.077 86.6148 271.956 88.5361 273.512 92.8174C279.309 108.759 282.189 125.639 281.99 142.646C281.76 162.407 277.378 181.898 269.129 199.856C260.88 217.814 248.948 233.837 234.107 246.886C219.267 259.936 201.849 269.72 182.983 275.604C164.118 281.488 144.226 283.341 124.599 281.042C104.971 278.743 86.0459 272.344 69.0507 262.26C52.0555 252.176 37.3698 238.632 25.9462 222.506C16.1143 208.628 8.88778 193.103 4.59364 176.693C3.44045 172.286 6.36133 167.932 10.8283 167.038C15.2953 166.145 19.6138 169.051 20.8011 173.449C24.6201 187.595 30.9124 200.978 39.4076 212.97C49.4946 227.209 62.462 239.168 77.4688 248.072C92.4756 256.977 109.187 262.627 126.518 264.657C143.849 266.687 161.413 265.051 178.071 259.855C194.73 254.659 210.11 246.02 223.214 234.497C236.318 222.975 246.854 208.826 254.138 192.97C261.421 177.113 265.291 159.902 265.495 142.454C265.666 127.759 263.235 113.172 258.335 99.3628C256.811 95.0696 258.712 90.2235 262.895 88.4192Z" stroke="#F2F5FC" stroke-width="32.7906" mask="url(#path-1-inside-1_144_792)"/>
<path d="M123.028 9.34267C122.421 4.89847 118.319 1.76392 113.917 2.62531C80.0667 9.24931 49.71 28.0853 28.7296 55.6995C7.74916 83.3137 -2.26109 117.608 0.430281 151.996C0.780267 156.467 4.89952 159.579 9.34373 158.972C13.7879 158.366 16.8709 154.27 16.5545 149.796C14.4248 119.683 23.2895 89.7093 41.6632 65.5261C60.0369 41.3428 86.538 24.7685 116.12 18.7492C120.515 17.8548 123.634 13.7869 123.028 9.34267Z" fill="#E26972"/>
<path d="M259.512 81.1812C263.578 79.1288 265.232 74.1544 262.945 70.2151C250.799 49.2894 233.444 31.7982 212.512 19.48C191.579 7.16178 167.862 0.483289 143.671 0.0252387C139.117 -0.0609883 135.571 3.79974 135.751 8.35092C135.931 12.9021 139.77 16.417 144.323 16.5385C165.35 17.0996 185.941 22.9819 204.146 33.6954C222.352 44.4088 237.492 59.5536 248.192 77.663C250.509 81.5844 255.446 83.2335 259.512 81.1812Z" fill="#8A4E7D"/>
</svg>
