<svg width="15" height="15" viewBox="0 0 15 15" fill="none" xmlns="http://www.w3.org/2000/svg">
<g clip-path="url(#clip0_144_799)">
<path d="M12.9342 9.09962C12.7755 7.03366 11.8136 5.73901 10.965 4.59655C10.1793 3.53889 9.50063 2.62554 9.50063 1.27821C9.50063 1.16999 9.44002 1.07107 9.34392 1.02148C9.24752 0.971587 9.1317 0.979757 9.04406 1.04345C7.76963 1.95539 6.70628 3.4924 6.33483 4.95894C6.07696 5.97994 6.04284 7.12776 6.03805 7.88584C4.86113 7.63446 4.59452 5.87399 4.5917 5.85481C4.57845 5.7635 4.52266 5.68403 4.44149 5.64064C4.35948 5.59781 4.26308 5.5947 4.17994 5.63585C4.11823 5.66572 2.66509 6.40407 2.58054 9.3521C2.57461 9.45018 2.57434 9.54855 2.57434 9.6469C2.57434 12.5109 4.90479 14.8413 7.76906 14.8413C7.77301 14.8415 7.77723 14.8421 7.78061 14.8413C7.78175 14.8413 7.78286 14.8413 7.78426 14.8413C10.6415 14.8331 12.9638 12.5059 12.9638 9.6469C12.9638 9.50288 12.9342 9.09962 12.9342 9.09962ZM7.76906 14.2641C6.8142 14.2641 6.03749 13.4367 6.03749 12.4197C6.03749 12.385 6.03721 12.35 6.03973 12.3072C6.05128 11.8783 6.13275 11.5855 6.22209 11.3908C6.38951 11.7504 6.6888 12.0809 7.17497 12.0809C7.33449 12.0809 7.46357 11.9518 7.46357 11.7923C7.46357 11.3815 7.47204 10.9075 7.57434 10.4797C7.66538 10.1003 7.88294 9.69676 8.15858 9.37326C8.28117 9.79316 8.52018 10.133 8.75354 10.4647C9.08751 10.9393 9.43275 11.4299 9.49335 12.2666C9.497 12.3162 9.50068 12.3661 9.50068 12.4197C9.50063 13.4367 8.72391 14.2641 7.76906 14.2641Z" fill="#FFA935"/>
</g>
<defs>
<clipPath id="clip0_144_799">
<rect width="13.8526" height="13.8526" fill="white" transform="translate(0.842773 0.989105)"/>
</clipPath>
</defs>
</svg>
