<svg width="178" height="28" viewBox="0 0 178 28" fill="none" xmlns="http://www.w3.org/2000/svg">
<path d="M2.19235 27.6267C1.559 27.6267 1.03528 27.4151 0.621166 26.992C0.207054 26.544 0 25.9965 0 25.3493V2.27733C0 1.63022 0.207054 1.09511 0.621166 0.671997C1.03528 0.224 1.559 0 2.19235 0C2.82571 0 3.34941 0.224 3.76353 0.671997C4.17765 1.09511 4.3847 1.63022 4.3847 2.27733V25.3493C4.3847 25.9965 4.17765 26.544 3.76353 26.992C3.34941 27.4151 2.82571 27.6267 2.19235 27.6267ZM13.8118 7.65333C14.3721 7.65333 14.8593 7.88979 15.2734 8.36267C15.6875 8.83555 15.8945 9.296 15.8945 9.744C15.8945 10.3413 15.6022 10.9013 15.0176 11.424L4.01931 21.7653L3.83661 16.6133L12.2041 8.36267C12.6669 7.88979 13.2028 7.65333 13.8118 7.65333ZM14.3599 27.5893C13.7265 27.5893 13.1906 27.3405 12.7522 26.8427L5.99242 19.5253L9.31749 16.3893L15.8945 23.7067C16.3574 24.2045 16.5888 24.7645 16.5888 25.3867C16.5888 26.0338 16.333 26.5689 15.8215 26.992C15.3343 27.3902 14.8471 27.5893 14.3599 27.5893ZM28.3133 7.28C29.7018 7.28 30.9076 7.42933 31.9307 7.728C32.978 8.02667 33.7819 8.44979 34.3423 8.99733C34.9269 9.52 35.2192 10.1547 35.2192 10.9013C35.2192 11.3991 35.073 11.872 34.7807 12.32C34.4884 12.7431 34.0622 12.9547 33.5019 12.9547C33.1122 12.9547 32.7833 12.9049 32.5153 12.8053C32.2718 12.6809 32.0526 12.5315 31.8576 12.3573C31.6626 12.1831 31.4314 12.0213 31.1633 11.872C30.9198 11.7227 30.5422 11.6107 30.0306 11.536C29.5433 11.4365 29.178 11.3867 28.9345 11.3867C27.6921 11.3867 26.6325 11.6605 25.7555 12.208C24.903 12.7555 24.2453 13.5022 23.7824 14.448C23.3196 15.3689 23.0882 16.4391 23.0882 17.6587C23.0882 18.8533 23.3196 19.9235 23.7824 20.8693C24.2696 21.7902 24.9273 22.5245 25.7555 23.072C26.6081 23.6195 27.5825 23.8933 28.6787 23.8933C29.2876 23.8933 29.8114 23.856 30.2499 23.7813C30.6883 23.7067 31.0537 23.5947 31.346 23.4453C31.6872 23.2462 31.9915 23.0347 32.2595 22.8107C32.5276 22.5867 32.9295 22.4747 33.4653 22.4747C34.0988 22.4747 34.5858 22.6862 34.9269 23.1093C35.268 23.5075 35.4384 24.0053 35.4384 24.6027C35.4384 25.2249 35.0973 25.7973 34.4153 26.32C33.7334 26.8178 32.8319 27.2285 31.7114 27.552C30.6153 27.8507 29.4217 28 28.1306 28C26.2062 28 24.5376 27.552 23.1247 26.656C21.7119 25.7351 20.6157 24.4907 19.8362 22.9227C19.0811 21.3547 18.7035 19.6 18.7035 17.6587C18.7035 15.6178 19.1054 13.8258 19.9093 12.2827C20.7375 10.7147 21.8702 9.49512 23.3074 8.624C24.769 7.728 26.4376 7.28 28.3133 7.28ZM54.6044 7.28C55.2378 7.28 55.7613 7.49155 56.1755 7.91467C56.5898 8.33779 56.7967 8.88533 56.7967 9.55733V25.3493C56.7967 25.9965 56.5898 26.544 56.1755 26.992C55.7613 27.4151 55.2378 27.6267 54.6044 27.6267C53.9709 27.6267 53.4474 27.4151 53.0332 26.992C52.619 26.544 52.412 25.9965 52.412 25.3493V23.52L53.2159 23.856C53.2159 24.1795 53.0455 24.5778 52.7043 25.0507C52.3632 25.4987 51.9005 25.9467 51.3158 26.3947C50.7312 26.8427 50.037 27.2285 49.2331 27.552C48.4535 27.8507 47.6011 28 46.6754 28C44.9946 28 43.4722 27.5645 42.108 26.6933C40.7437 25.7973 39.6598 24.5778 38.856 23.0347C38.0764 21.4667 37.6867 19.6747 37.6867 17.6587C37.6867 15.6178 38.0764 13.8258 38.856 12.2827C39.6598 10.7147 40.7318 9.49512 42.0714 8.624C43.4111 7.728 44.8972 7.28 46.5292 7.28C47.5766 7.28 48.5389 7.44179 49.4158 7.76533C50.2927 8.08888 51.0478 8.49955 51.6812 8.99733C52.3389 9.49512 52.8382 10.0053 53.1793 10.528C53.5447 11.0258 53.7274 11.4489 53.7274 11.7973L52.412 12.2827V9.55733C52.412 8.91021 52.619 8.37512 53.0332 7.952C53.4474 7.504 53.9709 7.28 54.6044 7.28ZM47.2234 23.8933C48.2954 23.8933 49.2331 23.6195 50.037 23.072C50.8408 22.5245 51.462 21.7778 51.9005 20.832C52.3632 19.8862 52.5947 18.8285 52.5947 17.6587C52.5947 16.464 52.3632 15.3938 51.9005 14.448C51.462 13.5022 50.8408 12.7555 50.037 12.208C49.2331 11.6605 48.2954 11.3867 47.2234 11.3867C46.1761 11.3867 45.2503 11.6605 44.4465 12.208C43.6426 12.7555 43.0092 13.5022 42.5464 14.448C42.108 15.3938 41.8887 16.464 41.8887 17.6587C41.8887 18.8285 42.108 19.8862 42.5464 20.832C43.0092 21.7778 43.6426 22.5245 44.4465 23.072C45.2503 23.6195 46.1761 23.8933 47.2234 23.8933ZM66.2943 25.3493C66.2943 25.9965 66.0751 26.544 65.6366 26.992C65.2224 27.4151 64.6989 27.6267 64.0654 27.6267C63.4565 27.6267 62.945 27.4151 62.5308 26.992C62.1166 26.544 61.9096 25.9965 61.9096 25.3493V2.27733C61.9096 1.63022 62.1166 1.09511 62.5308 0.671997C62.9693 0.224 63.5051 0 64.1385 0C64.772 0 65.2835 0.224 65.6732 0.671997C66.0874 1.09511 66.2943 1.63022 66.2943 2.27733V25.3493ZM87.3968 7.28C88.0303 7.28 88.5538 7.49155 88.968 7.91467C89.3822 8.33779 89.5892 8.88533 89.5892 9.55733V25.3493C89.5892 25.9965 89.3822 26.544 88.968 26.992C88.5538 27.4151 88.0303 27.6267 87.3968 27.6267C86.7634 27.6267 86.2399 27.4151 85.8257 26.992C85.4114 26.544 85.2045 25.9965 85.2045 25.3493V23.52L86.0083 23.856C86.0083 24.1795 85.8379 24.5778 85.4968 25.0507C85.1557 25.4987 84.6929 25.9467 84.1083 26.3947C83.5237 26.8427 82.8294 27.2285 82.0256 27.552C81.246 27.8507 80.3936 28 79.4678 28C77.787 28 76.2647 27.5645 74.9004 26.6933C73.5362 25.7973 72.4523 24.5778 71.6485 23.0347C70.8689 21.4667 70.4792 19.6747 70.4792 17.6587C70.4792 15.6178 70.8689 13.8258 71.6485 12.2827C72.4523 10.7147 73.5242 9.49512 74.8639 8.624C76.2036 7.728 77.6897 7.28 79.3217 7.28C80.369 7.28 81.3313 7.44179 82.2083 7.76533C83.0852 8.08888 83.8403 8.49955 84.4737 8.99733C85.1314 9.49512 85.6307 10.0053 85.9718 10.528C86.3372 11.0258 86.5199 11.4489 86.5199 11.7973L85.2045 12.2827V9.55733C85.2045 8.91021 85.4114 8.37512 85.8257 7.952C86.2399 7.504 86.7634 7.28 87.3968 7.28ZM80.0159 23.8933C81.0878 23.8933 82.0256 23.6195 82.8294 23.072C83.6333 22.5245 84.2545 21.7778 84.6929 20.832C85.1557 19.8862 85.3872 18.8285 85.3872 17.6587C85.3872 16.464 85.1557 15.3938 84.6929 14.448C84.2545 13.5022 83.6333 12.7555 82.8294 12.208C82.0256 11.6605 81.0878 11.3867 80.0159 11.3867C78.9686 11.3867 78.0428 11.6605 77.2389 12.208C76.4351 12.7555 75.8017 13.5022 75.3389 14.448C74.9004 15.3938 74.6812 16.464 74.6812 17.6587C74.6812 18.8285 74.9004 19.8862 75.3389 20.832C75.8017 21.7778 76.4351 22.5245 77.2389 23.072C78.0428 23.6195 78.9686 23.8933 80.0159 23.8933ZM116.631 7.65333C117.191 7.65333 117.678 7.87733 118.092 8.32533C118.507 8.74845 118.713 9.296 118.713 9.968C118.713 10.1422 118.701 10.304 118.677 10.4533C118.653 10.5778 118.616 10.7022 118.567 10.8267L112.977 26.208C112.806 26.7058 112.502 27.0915 112.063 27.3653C111.625 27.6142 111.162 27.7013 110.675 27.6267C109.847 27.5769 109.226 27.104 108.811 26.208L105.194 15.568L106.144 15.6053L102.746 26.208C102.332 27.104 101.71 27.5769 100.882 27.6267C100.42 27.7013 99.9566 27.6142 99.4939 27.3653C99.0554 27.0915 98.7508 26.7058 98.5804 26.208L92.9899 10.8267C92.8926 10.5529 92.8437 10.2667 92.8437 9.968C92.8437 9.37067 93.0387 8.83555 93.4284 8.36267C93.818 7.88979 94.3541 7.65333 95.0361 7.65333C95.4988 7.65333 95.913 7.76533 96.2784 7.98933C96.6438 8.21333 96.8996 8.57421 97.0457 9.072L101.467 21.3173L100.554 21.2427L103.879 12.0213C104.268 11.1005 104.938 10.64 105.888 10.64C106.424 10.64 106.826 10.7645 107.094 11.0133C107.386 11.2373 107.618 11.5733 107.788 12.0213L111.113 21.2427L110.017 21.392L114.511 9.072C114.804 8.12621 115.51 7.65333 116.631 7.65333ZM138.316 7.28C138.95 7.28 139.473 7.49155 139.887 7.91467C140.302 8.33779 140.509 8.88533 140.509 9.55733V25.3493C140.509 25.9965 140.302 26.544 139.887 26.992C139.473 27.4151 138.95 27.6267 138.316 27.6267C137.683 27.6267 137.159 27.4151 136.745 26.992C136.331 26.544 136.124 25.9965 136.124 25.3493V23.52L136.928 23.856C136.928 24.1795 136.757 24.5778 136.416 25.0507C136.075 25.4987 135.612 25.9467 135.028 26.3947C134.443 26.8427 133.749 27.2285 132.945 27.552C132.165 27.8507 131.313 28 130.387 28C128.706 28 127.184 27.5645 125.82 26.6933C124.456 25.7973 123.372 24.5778 122.568 23.0347C121.788 21.4667 121.399 19.6747 121.399 17.6587C121.399 15.6178 121.788 13.8258 122.568 12.2827C123.372 10.7147 124.444 9.49512 125.783 8.624C127.123 7.728 128.609 7.28 130.241 7.28C131.288 7.28 132.251 7.44179 133.128 7.76533C134.005 8.08888 134.76 8.49955 135.393 8.99733C136.051 9.49512 136.55 10.0053 136.891 10.528C137.257 11.0258 137.439 11.4489 137.439 11.7973L136.124 12.2827V9.55733C136.124 8.91021 136.331 8.37512 136.745 7.952C137.159 7.504 137.683 7.28 138.316 7.28ZM130.935 23.8933C132.007 23.8933 132.945 23.6195 133.749 23.072C134.553 22.5245 135.174 21.7778 135.612 20.832C136.075 19.8862 136.307 18.8285 136.307 17.6587C136.307 16.464 136.075 15.3938 135.612 14.448C135.174 13.5022 134.553 12.7555 133.749 12.208C132.945 11.6605 132.007 11.3867 130.935 11.3867C129.888 11.3867 128.962 11.6605 128.158 12.208C127.354 12.7555 126.721 13.5022 126.258 14.448C125.82 15.3938 125.601 16.464 125.601 17.6587C125.601 18.8285 125.82 19.8862 126.258 20.832C126.721 21.7778 127.354 22.5245 128.158 23.072C128.962 23.6195 129.888 23.8933 130.935 23.8933ZM147.448 27.6267C146.815 27.6267 146.291 27.4151 145.877 26.992C145.463 26.544 145.256 25.9965 145.256 25.3493V9.93067C145.256 9.28355 145.463 8.74845 145.877 8.32533C146.291 7.87733 146.815 7.65333 147.448 7.65333C148.082 7.65333 148.605 7.87733 149.02 8.32533C149.434 8.74845 149.641 9.28355 149.641 9.93067V13.44L149.385 10.9387C149.653 10.3413 149.994 9.81867 150.408 9.37067C150.847 8.89779 151.334 8.512 151.87 8.21333C152.405 7.88979 152.978 7.65333 153.587 7.504C154.196 7.35467 154.805 7.28 155.414 7.28C156.145 7.28 156.754 7.49155 157.241 7.91467C157.752 8.33779 158.008 8.83555 158.008 9.408C158.008 10.2293 157.801 10.8267 157.387 11.2C156.973 11.5485 156.522 11.7227 156.035 11.7227C155.572 11.7227 155.146 11.6355 154.756 11.4613C154.391 11.2871 153.965 11.2 153.477 11.2C153.039 11.2 152.588 11.312 152.125 11.536C151.687 11.7351 151.273 12.0587 150.883 12.5067C150.518 12.9547 150.213 13.5147 149.97 14.1867C149.75 14.8338 149.641 15.6053 149.641 16.5013V25.3493C149.641 25.9965 149.434 26.544 149.02 26.992C148.605 27.4151 148.082 27.6267 147.448 27.6267ZM169.486 28C167.416 28 165.613 27.5645 164.079 26.6933C162.568 25.7973 161.399 24.5902 160.571 23.072C159.767 21.5538 159.365 19.8365 159.365 17.92C159.365 15.68 159.803 13.776 160.68 12.208C161.582 10.6151 162.751 9.39555 164.188 8.54933C165.625 7.70312 167.148 7.28 168.756 7.28C169.998 7.28 171.167 7.54133 172.263 8.064C173.384 8.58667 174.37 9.30845 175.223 10.2293C176.076 11.1253 176.745 12.1707 177.233 13.3653C177.744 14.56 178 15.8293 178 17.1733C177.976 17.7707 177.744 18.256 177.306 18.6293C176.867 19.0027 176.356 19.1893 175.771 19.1893H161.813L160.717 15.456H174.127L173.323 16.2027V15.1947C173.274 14.4729 173.018 13.8258 172.556 13.2533C172.117 12.6809 171.557 12.2329 170.875 11.9093C170.217 11.5609 169.511 11.3867 168.756 11.3867C168.025 11.3867 167.343 11.4862 166.709 11.6853C166.076 11.8845 165.528 12.2205 165.065 12.6933C164.602 13.1662 164.237 13.8009 163.969 14.5973C163.701 15.3938 163.567 16.4018 163.567 17.6213C163.567 18.9653 163.835 20.1102 164.371 21.056C164.931 21.9769 165.637 22.6862 166.49 23.184C167.367 23.6569 168.293 23.8933 169.267 23.8933C170.168 23.8933 170.887 23.8187 171.423 23.6693C171.959 23.52 172.385 23.3458 172.702 23.1467C173.043 22.9227 173.347 22.736 173.615 22.5867C174.054 22.3627 174.468 22.2507 174.858 22.2507C175.393 22.2507 175.832 22.4373 176.173 22.8107C176.538 23.184 176.721 23.6195 176.721 24.1173C176.721 24.7893 176.38 25.3991 175.698 25.9467C175.065 26.4942 174.176 26.9795 173.031 27.4027C171.886 27.8009 170.704 28 169.486 28Z" fill="#9F5F91"/>
</svg>
