<svg width="9" height="9" viewBox="0 0 9 9" fill="none" xmlns="http://www.w3.org/2000/svg">
<g clip-path="url(#clip0_309_620)">
<path d="M4.55469 9C4.40758 9 4.26649 8.95373 4.16247 8.87134C4.05844 8.78886 4 8.67716 4 8.56054V0.439454C4 0.322904 4.05844 0.211127 4.16247 0.128713C4.26649 0.0462995 4.40758 0 4.55469 0C4.7018 0 4.84289 0.0462995 4.94691 0.128713C5.05094 0.211127 5.10938 0.322904 5.10938 0.439454V8.56054C5.10938 8.67716 5.05094 8.78886 4.94691 8.87134C4.84289 8.95373 4.7018 9 4.55469 9Z" fill="white"/>
<path d="M8.56061 5.10937H0.439455C0.322904 5.10937 0.211127 5.05093 0.128713 4.94691C0.0462997 4.84288 0 4.7018 0 4.55468C0 4.40757 0.0462997 4.26648 0.128713 4.16246C0.211127 4.05844 0.322904 4 0.439455 4H8.56061C8.67716 4 8.78894 4.05844 8.87134 4.16246C8.95373 4.26648 9 4.40757 9 4.55468C9 4.7018 8.95373 4.84288 8.87134 4.94691C8.78894 5.05093 8.67716 5.10937 8.56061 5.10937Z" fill="white"/>
</g>
<defs>
<clipPath id="clip0_309_620">
<rect width="9" height="9" fill="white"/>
</clipPath>
</defs>
</svg>
